<svg width="19" height="19" viewBox="0 0 19 19" fill="none" xmlns="http://www.w3.org/2000/svg">
<path d="M12.375 8.9375C12.375 8.75516 12.3026 8.5803 12.1736 8.45136C12.0447 8.32243 11.8698 8.25 11.6875 8.25C11.5052 8.25 11.3303 8.32243 11.2014 8.45136C11.0724 8.5803 11 8.75516 11 8.9375V10.7708C11 10.9532 11.0724 11.128 11.2014 11.257C11.3303 11.3859 11.5052 11.4583 11.6875 11.4583C11.8698 11.4583 12.0447 11.3859 12.1736 11.257C12.3026 11.128 12.375 10.9532 12.375 10.7708V8.9375ZM8.9375 8.25C9.11984 8.25 9.2947 8.32243 9.42364 8.45136C9.55257 8.5803 9.625 8.75516 9.625 8.9375V10.7708C9.625 10.9532 9.55257 11.128 9.42364 11.257C9.2947 11.3859 9.11984 11.4583 8.9375 11.4583C8.75516 11.4583 8.5803 11.3859 8.45136 11.257C8.32243 11.128 8.25 10.9532 8.25 10.7708V8.9375C8.25 8.75516 8.32243 8.5803 8.45136 8.45136C8.5803 8.32243 8.75516 8.25 8.9375 8.25ZM6.875 8.9375C6.875 8.75516 6.80257 8.5803 6.67364 8.45136C6.5447 8.32243 6.36984 8.25 6.1875 8.25C6.00516 8.25 5.8303 8.32243 5.70136 8.45136C5.57243 8.5803 5.5 8.75516 5.5 8.9375V10.7708C5.5 10.9532 5.57243 11.128 5.70136 11.257C5.8303 11.3859 6.00516 11.4583 6.1875 11.4583C6.36984 11.4583 6.5447 11.3859 6.67364 11.257C6.80257 11.128 6.875 10.9532 6.875 10.7708V8.9375ZM3.4375 12.375C3.61984 12.375 3.7947 12.4474 3.92364 12.5764C4.05257 12.7053 4.125 12.8802 4.125 13.0625V15.3542C4.125 15.5365 4.05257 15.7114 3.92364 15.8403C3.7947 15.9692 3.61984 16.0417 3.4375 16.0417C3.25516 16.0417 3.0803 15.9692 2.95136 15.8403C2.82243 15.7114 2.75 15.5365 2.75 15.3542V13.0625C2.75 12.8802 2.82243 12.7053 2.95136 12.5764C3.0803 12.4474 3.25516 12.375 3.4375 12.375ZM15.5833 13.0625C15.5833 12.8802 15.5109 12.7053 15.382 12.5764C15.253 12.4474 15.0782 12.375 14.8958 12.375C14.7135 12.375 14.5386 12.4474 14.4097 12.5764C14.2808 12.7053 14.2083 12.8802 14.2083 13.0625V15.3542C14.2083 15.5365 14.2808 15.7114 14.4097 15.8403C14.5386 15.9692 14.7135 16.0417 14.8958 16.0417C15.0782 16.0417 15.253 15.9692 15.382 15.8403C15.5109 15.7114 15.5833 15.5365 15.5833 15.3542V13.0625ZM8.9375 0H12.375C12.4966 0 12.6131 0.0482886 12.6991 0.134243C12.785 0.220197 12.8333 0.336776 12.8333 0.458333V2.29167C12.8333 2.41322 12.785 2.5298 12.6991 2.61576C12.6131 2.70171 12.4966 2.75 12.375 2.75H9.625V3.68317C11.2433 3.79906 12.7576 4.52368 13.8631 5.71118C14.9687 6.89868 15.5833 8.46089 15.5833 10.0833H16.2708C16.8178 10.0833 17.3424 10.3006 17.7292 10.6874C18.116 11.0742 18.3333 11.5988 18.3333 12.1458V17.6458C18.3333 17.8282 18.2609 18.003 18.132 18.132C18.003 18.2609 17.8282 18.3333 17.6458 18.3333H0.6875C0.505164 18.3333 0.330295 18.2609 0.201364 18.132C0.0724327 18.003 0 17.8282 0 17.6458V12.1458C0 11.5988 0.217298 11.0742 0.604092 10.6874C0.990886 10.3006 1.51549 10.0833 2.0625 10.0833H2.75C2.74999 8.54017 3.30594 7.04865 4.31603 5.882C5.32612 4.71535 6.72272 3.95166 8.25 3.73083V0.6875C8.25 0.505164 8.32243 0.330295 8.45136 0.201364C8.5803 0.0724327 8.75516 0 8.9375 0ZM9.16667 5.04167C7.82953 5.04167 6.54717 5.57284 5.60167 6.51834C4.65617 7.46383 4.125 8.7462 4.125 10.0833V10.7708C4.125 10.9532 4.05257 11.128 3.92364 11.257C3.7947 11.3859 3.61984 11.4583 3.4375 11.4583H2.0625C1.88016 11.4583 1.7053 11.5308 1.57636 11.6597C1.44743 11.7886 1.375 11.9635 1.375 12.1458V16.9583H6.875V14.4375C6.875 14.2552 6.94743 14.0803 7.07636 13.9514C7.2053 13.8224 7.38016 13.75 7.5625 13.75H10.7708C10.9532 13.75 11.128 13.8224 11.257 13.9514C11.3859 14.0803 11.4583 14.2552 11.4583 14.4375V16.9583H16.9583V12.1458C16.9583 11.9635 16.8859 11.7886 16.757 11.6597C16.628 11.5308 16.4532 11.4583 16.2708 11.4583H14.8958C14.7135 11.4583 14.5386 11.3859 14.4097 11.257C14.2808 11.128 14.2083 10.9532 14.2083 10.7708V10.0833C14.2083 8.7462 13.6772 7.46383 12.7317 6.51834C11.7862 5.57284 10.5038 5.04167 9.16667 5.04167ZM10.0833 15.125H8.25V16.9583H10.0833V15.125Z" fill="white"/>
</svg>
