<svg width="22" height="22" viewBox="0 0 22 22" fill="none" xmlns="http://www.w3.org/2000/svg">
<path d="M15.5161 15.5536C15.3807 15.4658 15.2159 15.4351 15.0579 15.4683C14.8999 15.5015 14.7614 15.5959 14.6728 15.7308C13.8111 17.0508 12.2283 18.6703 10.8167 19.2142C9.40501 19.7581 8.2989 19.5625 7.8589 19.2142C7.66945 19.0492 7.17445 18.6031 7.59612 17.0814C7.87723 16.067 9.62501 11.2881 10.0406 10.127L8.70834 10.2981C8.28668 11.4347 6.69779 15.7003 6.41057 16.7636C5.99501 18.2853 6.20279 19.3914 7.07668 20.1614C7.68728 20.5898 8.42131 20.8066 9.16668 20.7786C9.88992 20.7682 10.6049 20.6231 11.275 20.3508C12.98 19.6847 14.7706 17.8331 15.7117 16.397C15.7543 16.3288 15.7831 16.2529 15.7964 16.1735C15.8097 16.0942 15.8071 16.013 15.789 15.9347C15.7708 15.8563 15.7374 15.7823 15.6905 15.717C15.6437 15.6516 15.5844 15.5961 15.5161 15.5536V15.5536Z" fill="#EBF2FC"/>
<path d="M11.7944 6.72266C12.3383 6.72266 12.87 6.56137 13.3223 6.2592C13.7745 5.95703 14.127 5.52753 14.3351 5.02504C14.5432 4.52254 14.5977 3.96961 14.4916 3.43616C14.3855 2.90271 14.1236 2.41271 13.739 2.02811C13.3544 1.64352 12.8644 1.38161 12.3309 1.2755C11.7975 1.16939 11.2446 1.22385 10.7421 1.43199C10.2396 1.64013 9.81007 1.9926 9.50789 2.44484C9.20572 2.89707 9.04443 3.42876 9.04443 3.97266C9.04443 4.702 9.33416 5.40148 9.84989 5.9172C10.3656 6.43293 11.0651 6.72266 11.7944 6.72266V6.72266ZM11.7944 2.44488C12.0966 2.44488 12.392 2.53448 12.6432 2.70236C12.8945 2.87023 13.0903 3.10884 13.2059 3.388C13.3216 3.66717 13.3518 3.97435 13.2929 4.27071C13.2339 4.56707 13.0884 4.8393 12.8747 5.05296C12.6611 5.26662 12.3888 5.41213 12.0925 5.47108C11.7961 5.53003 11.4889 5.49977 11.2098 5.38414C10.9306 5.26851 10.692 5.07269 10.5241 4.82145C10.3563 4.5702 10.2667 4.27482 10.2667 3.97266C10.2667 3.56747 10.4276 3.17887 10.7141 2.89236C11.0006 2.60584 11.3892 2.44488 11.7944 2.44488Z" fill="#EBF2FC"/>
<path d="M7.21718 9.16648C7.25384 9.16648 11.0488 8.66537 11.9411 8.55537C12.3383 8.49426 12.6377 8.55537 12.7355 8.64704C12.8333 8.7387 12.8638 9.13593 12.6927 9.6737C12.32 10.8104 10.4377 16.3959 9.88773 18.052C10.1566 17.9969 10.4203 17.9192 10.6761 17.8198C10.9207 17.7186 11.1559 17.5959 11.3788 17.4531C12.1305 15.2776 13.5361 11.0609 13.8538 10.0954C14.1716 9.12981 14.0922 8.39648 13.6705 7.89537C13.43 7.65148 13.1289 7.47596 12.7981 7.38683C12.4673 7.2977 12.1188 7.29815 11.7883 7.38815C10.9144 7.47981 7.22329 7.96259 7.0644 7.99926C6.90232 8.02033 6.75525 8.10492 6.65555 8.23442C6.55584 8.36393 6.51166 8.52774 6.53273 8.68981C6.5538 8.85189 6.63839 8.99896 6.7679 9.09867C6.8974 9.19837 7.06121 9.24255 7.22329 9.22148L7.21718 9.16648Z" fill="#EBF2FC"/>
</svg>
