<svg width="22" height="20" viewBox="0 0 22 20" fill="none" xmlns="http://www.w3.org/2000/svg">
<path d="M15.7276 3.65991L11.001 0.574219L6.27444 3.65991H15.7276ZM20.2189 17.8411H1.78311C1.60119 17.8411 1.42869 17.9312 1.30637 18.0862L0.0392645 19.712C-0.0485548 19.8238 0.0204463 20.0004 0.152175 20.0004H21.8498C21.9784 20.0004 22.0474 19.8238 21.9627 19.712L20.6925 18.0862C20.5733 17.9312 20.3977 17.8411 20.2189 17.8411V17.8411ZM19.0396 15.4944H17.9168C17.7317 15.4944 17.5812 15.3214 17.5812 15.1087V9.34826C17.5812 9.13557 17.7317 8.96255 17.9168 8.96255H19.0396C19.2247 8.96255 19.3752 9.13557 19.3752 9.34826V15.1123C19.3752 15.325 19.2247 15.4944 19.0396 15.4944ZM19.4254 8.53358H17.5341C17.393 8.53358 17.2707 8.42543 17.2299 8.27043L17.0856 7.69727C17.026 7.46656 17.1797 7.23585 17.3899 7.23585H19.5697C19.7798 7.23585 19.9303 7.46656 19.8739 7.69727L19.7296 8.27043C19.6888 8.42543 19.5634 8.53358 19.4254 8.53358V8.53358ZM17.531 15.927H19.4222C19.5634 15.927 19.6857 16.0351 19.7265 16.1901L19.8708 16.7633C19.9303 16.994 19.7767 17.2247 19.5665 17.2247H17.3867C17.1766 17.2247 17.026 16.994 17.0825 16.7633L17.2268 16.1901C17.2675 16.0315 17.393 15.927 17.531 15.927V15.927ZM4.45532 15.4944H3.33249C3.14744 15.4944 2.99689 15.3214 2.99689 15.1087V9.34826C2.99689 9.13557 3.14744 8.96255 3.33249 8.96255H4.45532C4.64037 8.96255 4.79092 9.13557 4.79092 9.34826V15.1123C4.78778 15.325 4.63723 15.4944 4.45532 15.4944ZM4.83796 8.53358H2.94671C2.80557 8.53358 2.68325 8.42543 2.64248 8.27043L2.49821 7.69727C2.43861 7.46656 2.5923 7.23585 2.80244 7.23585H4.98224C5.19238 7.23585 5.34292 7.46656 5.28647 7.69727L5.14219 8.27043C5.10142 8.42543 4.9791 8.53358 4.83796 8.53358ZM2.94671 15.927H4.83796C4.9791 15.927 5.10142 16.0351 5.14219 16.1901L5.28647 16.7633C5.34606 16.994 5.19238 17.2247 4.98224 17.2247H2.80244C2.5923 17.2247 2.44175 16.994 2.49821 16.7633L2.64248 16.1901C2.68325 16.0315 2.80557 15.927 2.94671 15.927ZM9.31675 15.4944H8.19392C8.00887 15.4944 7.85832 15.3214 7.85832 15.1087V9.34826C7.85832 9.13557 8.00887 8.96255 8.19392 8.96255H9.31675C9.5018 8.96255 9.65235 9.13557 9.65235 9.34826V15.1123C9.65152 15.214 9.6158 15.3112 9.55295 15.3827C9.4901 15.4543 9.40521 15.4944 9.31675 15.4944V15.4944ZM9.69939 8.53358H7.80814C7.667 8.53358 7.54468 8.42543 7.50391 8.27043L7.35963 7.69727C7.30004 7.46656 7.45373 7.23585 7.66386 7.23585H9.84367C10.0538 7.23585 10.2044 7.46656 10.1479 7.69727L10.0036 8.27043C9.96285 8.42543 9.84053 8.53358 9.69939 8.53358ZM7.80814 15.927H9.69939C9.84053 15.927 9.96285 16.0351 10.0036 16.1901L10.1479 16.7633C10.2075 16.994 10.0538 17.2247 9.84367 17.2247H7.66386C7.45373 17.2247 7.30318 16.994 7.35963 16.7633L7.50391 16.1901C7.54468 16.0315 7.667 15.927 7.80814 15.927ZM14.1782 15.4944H13.0553C12.8703 15.4944 12.7198 15.3214 12.7198 15.1087V9.34826C12.7198 9.13557 12.8703 8.96255 13.0553 8.96255H14.1782C14.3632 8.96255 14.5138 9.13557 14.5138 9.34826V15.1123C14.5129 15.214 14.4772 15.3112 14.4144 15.3827C14.3515 15.4543 14.2666 15.4944 14.1782 15.4944V15.4944ZM14.5608 8.53358H12.6696C12.5284 8.53358 12.4061 8.42543 12.3653 8.27043L12.2211 7.69727C12.1615 7.46656 12.3152 7.23585 12.5253 7.23585H14.7051C14.9152 7.23585 15.0658 7.46656 15.0093 7.69727L14.8651 8.27043C14.8243 8.42543 14.702 8.53358 14.5608 8.53358V8.53358ZM12.6696 15.927H14.5608C14.702 15.927 14.8243 16.0351 14.8651 16.1901L15.0093 16.7633C15.0689 16.994 14.9152 17.2247 14.7051 17.2247H12.5253C12.3152 17.2247 12.1646 16.994 12.2211 16.7633L12.3653 16.1901C12.4061 16.0315 12.5316 15.927 12.6696 15.927V15.927Z" fill="white"/>
</svg>
